HIERARCHY
ROOT Hips
{
	OFFSET 0.00000 0.00000 0.00000
	CHANNELS 6 Xposition Yposition Zposition Zrotation Yrotation Xrotation 
	JOINT LHipJoint
	{
		OFFSET 0 0 0
		CHANNELS 3 Zrotation Yrotation Xrotation
		JOINT LeftUpLeg
		{
			OFFSET 1.62964 -1.40469 0.78906
			CHANNELS 3 Zrotation Yrotation Xrotation
			JOINT LeftLeg
			{
				OFFSET 2.29640 -6.30932 0.00000
				CHANNELS 3 Zrotation Yrotation Xrotation
				JOINT LeftFoot
				{
					OFFSET 2.29451 -6.30412 0.00000
					CHANNELS 3 Zrotation Yrotation Xrotation
					JOINT LeftToeBase
					{
						OFFSET 0.03611 -0.09921 1.56387
						CHANNELS 3 Zrotation Yrotation Xrotation
						End Site
						{
							OFFSET 0.00000 -0.00000 0.80291
						}
					}
				}
			}
		}
	}
	JOINT RHipJoint
	{
		OFFSET 0 0 0
		CHANNELS 3 Zrotation Yrotation Xrotation
		JOINT RightUpLeg
		{
			OFFSET -1.73712 -1.40469 0.78906
			CHANNELS 3 Zrotation Yrotation Xrotation
			JOINT RightLeg
			{
				OFFSET -2.28137 -6.26801 0.00000
				CHANNELS 3 Zrotation Yrotation Xrotation
				JOINT RightFoot
				{
					OFFSET -2.28681 -6.28298 0.00000
					CHANNELS 3 Zrotation Yrotation Xrotation
					JOINT RightToeBase
					{
						OFFSET -0.15927 -0.43759 1.61103
						CHANNELS 3 Zrotation Yrotation Xrotation
						End Site
						{
							OFFSET -0.00000 -0.00000 0.84630
						}
					}
				}
			}
		}
	}
	JOINT LowerBack
	{
		OFFSET 0 0 0
		CHANNELS 3 Zrotation Yrotation Xrotation
		JOINT Spine
		{
			OFFSET -0.04227 2.04338 -0.00225
			CHANNELS 3 Zrotation Yrotation Xrotation
			JOINT Spine1
			{
				OFFSET -0.02148 2.04482 -0.04273
				CHANNELS 3 Zrotation Yrotation Xrotation
				JOINT Neck
				{
					OFFSET 0 0 0
					CHANNELS 3 Zrotation Yrotation Xrotation
					JOINT Neck1
					{
						OFFSET 0.09180 1.44629 0.19359
						CHANNELS 3 Zrotation Yrotation Xrotation
						JOINT Head
						{
							OFFSET 0.00887 1.40645 0.14750
							CHANNELS 3 Zrotation Yrotation Xrotation
							End Site
							{
								OFFSET -0.00669 1.50671 0.03707
							}
						}
					}
				}
				JOINT LeftShoulder
				{
					OFFSET 0 0 0
					CHANNELS 3 Zrotation Yrotation Xrotation
					JOINT LeftArm
					{
						OFFSET 2.17674 1.86763 -0.06520
						CHANNELS 3 Zrotation Yrotation Xrotation
						JOINT LeftForeArm
						{
							OFFSET 4.65776 -0.00000 0.00000
							CHANNELS 3 Zrotation Yrotation Xrotation
							JOINT LeftHand
							{
								OFFSET 3.55539 -0.00000 0.00000
								CHANNELS 3 Zrotation Yrotation Xrotation
								JOINT LeftFingerBase
								{
									OFFSET 0 0 0
									CHANNELS 3 Zrotation Yrotation Xrotation
									JOINT LeftHandIndex1
									{
										OFFSET 0.70726 -0.00000 0.00000
										CHANNELS 3 Zrotation Yrotation Xrotation
										End Site
										{
											OFFSET 0.57022 -0.00000 0.00000
										}
									}
								}
								JOINT LThumb
								{
									OFFSET 0 0 0
									CHANNELS 3 Zrotation Yrotation Xrotation
									End Site
									{
										OFFSET 0.57892 -0.00000 0.57892
									}
								}
							}
						}
					}
				}
				JOINT RightShoulder
				{
					OFFSET 0 0 0
					CHANNELS 3 Zrotation Yrotation Xrotation
					JOINT RightArm
					{
						OFFSET -2.80694 1.55459 -0.32496
						CHANNELS 3 Zrotation Yrotation Xrotation
						JOINT RightForeArm
						{
							OFFSET -4.71925 -0.00000 -0.00000
							CHANNELS 3 Zrotation Yrotation Xrotation
							JOINT RightHand
							{
								OFFSET -3.56990 -0.00000 0.00000
								CHANNELS 3 Zrotation Yrotation Xrotation
								JOINT RightFingerBase
								{
									OFFSET 0 0 0
									CHANNELS 3 Zrotation Yrotation Xrotation
									JOINT RightHandIndex1
									{
										OFFSET -0.50776 -0.00000 0.00000
										CHANNELS 3 Zrotation Yrotation Xrotation
										End Site
										{
											OFFSET -0.40937 -0.00000 0.00000
										}
									}
								}
								JOINT RThumb
								{
									OFFSET 0 0 0
									CHANNELS 3 Zrotation Yrotation Xrotation
									End Site
									{
										OFFSET -0.41562 -0.00000 0.41562
									}
								}
							}
						}
					}
				}
			}
		}
	}
}
MOTION
Frames: 8
Frame Time: .0083333
9.2935 16.3138 20.0389 0 0 0 0 0 0 -21 0 0 0 0 0 0 0 0 0 0 0 0 0 0 21 0 0 0 0 0 0 0 0 0 0 0 0 0 0 0 0 0 0 0 0 0 0 -16 0 0 21 0 0 11 0 0 0 -8 0 0 0 0 0 0 0 0 0 0 0 0 0 0 0 0 0 0 0 0 8 0 0 0 0 0 0 0 0 0 0 0 0 0 0 0 0 0
9.2935 16.3138 20.0389 -179.9140 -2.9064 -152.0300 0.0000 0.0000 0.0000 -14.9467 -17.9660 -20.4918 0.1566 2.5500 7.0282 0.1755 2.1992 -9.0411 4.3003 -12.5497 -37.7054 0.0000 0.0000 0.0000 17.0189 15.3056 -20.0664 -0.0936 -1.9735 5.4324 -1.0992 -2.1325 -20.6809 -2.1110 9.0936 -26.0887 -5.8192 -1.3501 -30.1633 0.4813 -1.0357 -3.6816 3.1788 -1.2015 11.7562 -4.8774 0.1610 -2.0630 7.2045 -0.5022 9.3358 3.2716 -0.2986 3.4673 -0.0000 -0.0000 0.0000 -85.5477 0.9191 14.6376 8.0029 -13.5575 -0.9528 -0.0000 -0.0000 13.4912 21.3495 -11.1464 -4.3212 -7.1250 0.0000 -0.0000 -4.0463 18.0527 2.5997 -0.0000 -0.0000 0.0000 90.9717 -3.4872 0.6450 -11.7733 19.4637 -2.0261 0.0000 0.0000 9.1691 -11.2660 -54.2200 9.1800 7.1250 -0.0000 -0.0000 71.7873 -75.7606 -57.3454
9.2921 16.3132 20.0364 -179.8080 -2.8571 -151.9380 0.0000 0.0000 0.0000 -14.8121 -18.0155 -20.5676 0.1578 2.5593 7.0540 0.1741 2.3579 -9.1165 4.2387 -12.4714 -37.4206 0.0000 0.0000 0.0000 17.0666 15.6265 -20.0836 -0.0949 -1.9862 5.4676 -1.0772 -2.4003 -20.6077 -2.0124 8.8919 -25.4578 -5.5791 -1.2689 -30.3144 0.3868 -0.9982 -3.6844 2.9581 -1.1783 11.8118 -4.7492 0.1308 -2.0551 7.1488 -0.5333 9.2199 3.2240 -0.3094 3.4254 -0.0000 0.0000 0.0000 -85.3917 0.8684 14.2682 7.9135 -13.4126 -0.9320 -0.0000 -0.0000 13.7788 21.5073 -11.5976 -4.5295 -7.1250 0.0000 -0.0000 -3.9496 17.5584 2.5803 -0.0000 0.0000 0.0000 91.1006 -3.5831 1.0377 -11.8517 19.5818 -2.0523 0.0000 0.0000 8.6853 -10.9193 -53.7881 8.8474 7.1250 -0.0000 -0.0000 70.2370 -75.5305 -55.6415
9.2917 16.3138 20.0316 -179.7660 -2.8869 -152.0030 0.0000 0.0000 0.0000 -14.8134 -17.8732 -20.5004 0.1565 2.5492 7.0260 0.1735 2.2612 -9.0385 4.2331 -12.4643 -37.3949 0.0000 0.0000 0.0000 17.1531 15.5978 -19.9798 -0.0945 -1.9824 5.4569 -1.0695 -2.4130 -20.5436 -1.9668 8.7966 -25.1610 -5.4142 -1.2435 -30.3389 0.3008 -1.0007 -3.6470 2.7756 -1.1707 11.8628 -4.6380 0.1039 -1.9862 7.0915 -0.5592 9.0731 3.1781 -0.3196 3.3610 -0.0000 -0.0000 0.0000 -85.2342 0.8674 14.0319 7.8931 -13.3794 -0.9272 -0.0000 -0.0000 13.8158 21.3133 -11.7410 -4.5392 -7.1250 0.0000 -0.0000 -4.0901 17.4232 2.6847 -0.0000 -0.0000 0.0000 91.2349 -3.6479 1.3937 -11.9245 19.6914 -2.0768 0.0000 0.0000 8.3580 -10.8138 -53.6717 8.7483 7.1250 -0.0000 -0.0000 69.8334 -75.4617 -55.1904
9.2912 16.3139 20.0297 -179.7270 -2.8916 -151.9890 0.0000 0.0000 0.0000 -14.7780 -17.7725 -20.5805 0.1592 2.5710 7.0867 0.1735 2.1664 -8.9752 4.3048 -12.5553 -37.7260 0.0000 0.0000 0.0000 17.2028 15.5435 -20.0379 -0.0959 -1.9976 5.4991 -1.0863 -2.2763 -20.6316 -1.9639 8.7905 -25.1423 -5.2488 -1.2192 -30.4326 0.2107 -1.0072 -3.6204 2.5850 -1.1676 11.9312 -4.5219 0.0793 -1.9552 7.0302 -0.5796 8.9301 3.1307 -0.3260 3.3048 -0.0000 0.0000 0.0000 -85.0687 0.8553 13.9571 7.8931 -13.3794 -0.9272 -0.0000 -0.0000 13.6847 21.1701 -11.8014 -4.5287 -7.1250 0.0000 -0.0000 -4.1921 17.3717 2.7567 -0.0000 0.0000 0.0000 91.4022 -3.5780 1.3878 -11.9008 19.6557 -2.0688 0.0000 0.0000 8.3647 -10.6557 -53.5104 8.6018 7.1250 -0.0000 -0.0000 69.2871 -75.3604 -54.5725
9.2902 16.3149 20.0286 -179.7360 -2.9241 -152.0150 0.0000 0.0000 0.0000 -14.7763 -17.8861 -20.5169 0.1602 2.5792 7.1093 0.1740 2.2537 -9.0455 4.2876 -12.5336 -37.6466 0.0000 0.0000 0.0000 17.2136 15.4747 -20.0108 -0.0954 -1.9917 5.4827 -1.0938 -2.2377 -20.6808 -2.0255 8.9191 -25.5425 -5.0907 -1.2024 -30.4700 0.0844 -1.0140 -3.5804 2.3607 -1.1621 11.9897 -4.4338 0.0521 -1.8831 6.9818 -0.6055 8.7836 3.0927 -0.3370 3.2404 0.0000 -0.0000 0.0000 -84.9051 0.7721 13.6392 7.8497 -13.3090 -0.9172 -0.0000 -0.0000 13.8622 21.2165 -11.8663 -4.5640 -7.1250 0.0000 -0.0000 -4.1618 17.2986 2.7433 0.0000 -0.0000 0.0000 91.6318 -3.5145 1.6365 -12.1492 20.0280 -2.1531 0.0000 0.0000 8.8280 -10.3030 -54.4303 8.4111 7.1250 -0.0000 -0.0000 72.8878 -75.4431 -58.0276
9.2893 16.3151 20.0273 -179.7760 -2.9758 -152.0520 0.0000 0.0000 0.0000 -14.8172 -17.9910 -20.4263 0.1593 2.5717 7.0884 0.1755 2.3089 -9.1138 4.3164 -12.5699 -37.7790 0.0000 0.0000 0.0000 17.2156 15.2885 -19.9985 -0.0945 -1.9831 5.4589 -1.0850 -2.1922 -20.5810 -2.0981 9.0674 -26.0064 -4.8518 -1.1677 -30.5625 -0.1386 -1.0030 -3.4935 1.9947 -1.1431 12.1214 -4.1477 0.0448 -1.1061 6.8989 -0.5585 7.7193 2.9848 -0.3134 2.7237 -0.0000 -0.0000 0.0000 -84.6277 0.5748 13.1334 7.7636 -13.1689 -0.8975 -0.0000 -0.0000 14.3029 21.3302 -11.7042 -4.5292 -7.1250 0.0000 -0.0000 -4.0771 17.4607 2.6727 -0.0000 -0.0000 0.0000 91.9759 -3.3661 1.4964 -11.9311 19.7013 -2.0790 0.0000 0.0000 8.4046 -12.9539 -48.1674 9.7253 7.1250 -0.0000 -0.0000 49.7230 -73.9709 -36.1542
9.2884 16.3138 20.0254 -179.8070 -2.9579 -152.0590 0.0000 0.0000 0.0000 -14.8775 -17.9800 -20.3935 0.1584 2.5647 7.0692 0.1750 2.3180 -9.1087 4.4090 -12.6856 -38.2026 0.0000 0.0000 0.0000 17.2196 15.0349 -20.0700 -0.0947 -1.9843 5.4624 -1.0760 -2.0025 -20.4127 -2.1207 9.1132 -26.1500 -4.8844 -1.1816 -30.6170 -0.1425 -1.0003 -3.4532 2.0077 -1.1430 12.1902 -4.0788 -0.0052 -1.1118 6.7644 -0.6037 7.6099 2.9227 -0.3342 2.6884 0.0000 -0.0000 0.0000 -84.6960 0.4215 12.8404 7.7114 -13.0840 -0.8857 -0.0000 -0.0000 14.5780 21.4191 -11.3361 -4.4093 -7.1250 0.0000 -0.0000 -4.0031 17.8446 2.5901 0.0000 -0.0000 0.0000 91.9676 -3.2923 1.4861 -11.9463 19.7240 -2.0841 0.0000 0.0000 8.4769 -13.6225 -49.1335 10.3852 7.1250 -0.0000 -0.0000 52.1376 -74.7513 -38.8830
